# xmcd
#
# Track frame offsets:
#	150
#	12145
#	32022
#	45212
#	73027
#	94910
#	107680
#	128407
#	163210
#	185597
#	205845
#	222435
#
# Disc length: 3198 seconds
# Revision: 0
# Processed by: cddbd v1.5.2PL0 Copyright (c) Steve Scherf et al.
# Submitted via: dBpowerAMP V12.0
#
DISCID=9f0c7c0c
DTITLE=Gary Moore - Still Got The Blues
DYEAR=1990
DGENRE=Blues
TTITLE0=Moving On
TTITLE1=Oh Pretty Woman
TTITLE2=Walking By Myself
TTITLE3=Still Got The Blues (For You)
TTITLE4=Texas Strut
TTITLE5=Too Tired
TTITLE6=King Of The Blues
TTITLE7=As The Years Go Passing By
TTITLE8=Midnight Blues
TTITLE9=That Kind Of Woman
TTITLE10=All Your Love
TTITLE11=Stop Messin' Around
EXTD=
EXTT0=
EXTT1=
EXTT2=
EXTT3=
EXTT4=
EXTT5=
EXTT6=
EXTT7=
EXTT8=
EXTT9=
EXTT10=
EXTT11=
PLAYORDER=
